# xmcd CD database file
#
# Track frame offsets:
#	150
#	13774
#	26819
#	40542
#	52119
#	66202
#	78948
#	92067
#	104334
#	117562
#
# Disc length: 1763 seconds
#
# Revision: 0
# Processed by: cddbd v1.5.2PL0 Copyright (c) Steve Scherf et al.
# Submitted via: CDex 1.51
#
DISCID=8006e10a
DTITLE=Ritter, Tex - The Best of Tex Ritter - The Ten Best series
DYEAR=1900
DGENRE=Country
TTITLE0=There's a Moon over My Shouldre
TTITLE1=You Will Have to Pay (For Your Yesterday)
TTITLE2=Long Time Gone
TTITLE3=Have I Told You Lately That I Love You?
TTITLE4=Deck og Cards
TTITLE5=I'm Wasting My Tears On You
TTITLE6=Jealous Heart
TTITLE7=You Two Timed Me One Time Too Often
TTITLE8=When You Leave Don't Slam the Door
TTITLE9=Rye Whiskey
EXTD=
EXTT0=
EXTT1=
EXTT2=
EXTT3=
EXTT4=
EXTT5=
EXTT6=
EXTT7=
EXTT8=
EXTT9=
PLAYORDER=
